<?xml version="1.0" encoding="UTF-8"?>
<svg id="Layer_1" data-name="Layer 1" xmlns="http://www.w3.org/2000/svg" viewBox="0 0 424.15 143.86">
  <defs>
    <style>
      .cls-1 {
        fill: #c43433;
      }

      .cls-1, .cls-2 {
        stroke-width: 0px;
      }

      .cls-2 {
        fill: #fff;
      }
    </style>
  </defs>
  <g>
    <path class="cls-1" d="M125.69,76.45c-.2,2.63-.58,5.24-1.16,7.83-.42,2-.97,3.99-1.62,5.94-1.23,3.68-2.82,7.25-4.8,10.68l-.4.69c-10.34,17.92-29.46,28.96-50.15,28.96h-.79c-20.69,0-39.81-11.04-50.15-28.96l-.4-.69c-10.35-17.92-10.35-40,0-57.92l.4-.69c10.35-17.92,29.47-28.96,50.15-28.96h.79c20.69,0,39.82,11.03,50.15,28.96l.4.69c2.37,4.11,4.21,8.45,5.48,12.9.7,2.4,1.24,4.84,1.6,7.29.36,2.29.57,4.59.65,6.9h0c.07,2.13.02,4.27-.15,6.39Z"/>
    <path class="cls-2" d="M43.75,103.03c-.77,0-1.72-.04-2.87-.11-1.15-.07-2.26-.16-3.34-.25-1.08-.1-1.93-.22-2.55-.36l1.36-6.25c.96.33,2.18.58,3.66.72,1.48.14,2.73.22,3.74.22,3.5,0,6.42-.53,8.76-1.58,2.35-1.05,3.78-2.83,4.31-5.32l.58-2.59c-3.26,1.92-6.97,2.87-11.14,2.87-3.02,0-5.6-.56-7.76-1.69-2.15-1.12-3.65-2.9-4.49-5.32-.84-2.42-.87-5.52-.11-9.3,1.24-5.84,3.58-10.38,7-13.61,3.42-3.23,7.58-4.85,12.46-4.85,2.49,0,4.56.34,6.21,1.01,1.65.67,3.1,1.7,4.35,3.09l1.22-3.38h6.68l-6.9,32.54c-.91,4.17-3.07,7.57-6.47,10.2-3.4,2.63-8.31,3.95-14.73,3.95ZM49.5,84.49c1.82,0,3.48-.27,4.99-.83,1.51-.55,2.91-1.28,4.2-2.19l3.45-16.31c-1.82-2.39-4.45-3.59-7.9-3.59-3.21,0-5.88,1.09-8.01,3.27s-3.6,5.23-4.42,9.16c-.57,2.78-.72,4.93-.43,6.47.29,1.53,1.09,2.59,2.41,3.16,1.32.58,3.22.86,5.71.86Z"/>
    <path class="cls-2" d="M76.15,90.39l5.89-27.95h-4.96l1.29-6.11h4.96l.93-4.17c.72-3.4,2.15-6.14,4.31-8.23,2.15-2.08,5.27-3.12,9.34-3.12,1.39,0,2.63.11,3.74.32,1.1.22,2.11.52,3.02.9l-1.22,5.6c-1.44-.53-2.9-.79-4.38-.79-2.25,0-3.89.41-4.92,1.22-1.03.81-1.76,2.2-2.19,4.17l-.86,4.09h8.91l-1.65,6.11h-8.55l-5.89,27.95h-7.76Z"/>
    <path class="cls-2" d="M125.69,76.45c.14-1.7.21-4.22.18-5.1h-.3s-18.03,0-18.03,0c.72-3.41,1.93-5.9,3.63-7.48,1.7-1.57,4.37-2.36,8.01-2.36,2.97,0,4.97.55,6.01,1.65-.37-2.45-.9-4.88-1.6-7.29-1.04-.16-2.18-.25-3.41-.25-6.08,0-10.74,1.57-13.98,4.74-3.22,3.16-5.42,7.47-6.57,12.92-.86,4.03-.78,7.36.22,9.99,1,2.64,2.76,4.59,5.28,5.89,2.51,1.29,5.64,1.94,9.37,1.94,2.25,0,4.4-.16,6.47-.5.67-.11,1.3-.23,1.93-.39.65-1.95,1.2-3.94,1.62-5.94-.57.14-1.15.25-1.76.36-1.87.34-3.67.51-5.39.51-4.46,0-7.47-.63-9.05-1.87-1.58-1.25-2.2-3.52-1.87-6.82h19.23Z"/>
  </g>
  <g>
    <path class="cls-1" d="M81.72,1.46c23.79,4.86,43.38,21.24,52.41,43.81.6,1.5-.13,3.2-1.63,3.8-1.5.6-3.2-.13-3.8-1.63-8.3-20.74-26.3-35.79-48.15-40.25-15.42-3.15-31.48-.69-45.22,6.92-13.6,7.53-24.14,19.62-29.68,34.05-.58,1.51-2.27,2.26-3.78,1.68-1.51-.58-2.26-2.27-1.68-3.78C6.23,30.35,17.7,17.19,32.5,8.99,47.46.7,64.94-1.97,81.72,1.46Z"/>
    <path class="cls-1" d="M124.97,107.88c.37.08.73.22,1.06.45,1.33.91,1.68,2.73.77,4.06-7.89,11.58-18.92,20.56-31.9,25.97-13.3,5.54-27.82,6.93-41.99,4.04-17.43-3.56-32.85-13.4-43.42-27.69-.96-1.3-.69-3.13.61-4.09,1.3-.96,3.13-.69,4.09.61,9.71,13.13,23.87,22.16,39.89,25.44,13.02,2.66,26.36,1.38,38.57-3.71,11.93-4.97,22.06-13.22,29.31-23.86.68-1,1.88-1.45,3-1.22Z"/>
  </g>
  <g>
    <path class="cls-2" d="M145.6,90.32c-2.23,0-4.33-.16-6.29-.48-1.96-.32-3.56-.71-4.79-1.16l1.37-6.29c1.41.59,3.02,1.05,4.82,1.37,1.8.32,3.54.48,5.23.48,2.55,0,4.42-.23,5.61-.68,1.19-.46,1.94-1.34,2.26-2.67.23-.96.07-1.71-.48-2.26s-1.44-1.05-2.67-1.5c-1.23-.46-2.78-1-4.65-1.64-1.78-.64-3.29-1.33-4.55-2.09-1.25-.75-2.13-1.72-2.63-2.91-.5-1.19-.57-2.74-.21-4.65.64-2.96,2.14-5.25,4.51-6.87,2.37-1.62,6.04-2.43,11.01-2.43,1.87,0,3.61.14,5.23.41,1.62.27,3,.62,4.14,1.03l-1.3,6.22c-1.14-.5-2.46-.89-3.97-1.16-1.5-.27-2.92-.41-4.24-.41-2.37,0-4.2.21-5.47.62-1.28.41-2.05,1.23-2.33,2.46-.27,1.28.16,2.18,1.3,2.7,1.14.52,3.01,1.24,5.61,2.15,2.37.78,4.22,1.6,5.54,2.46,1.32.87,2.19,1.9,2.6,3.11.41,1.21.41,2.77,0,4.68-.68,3.19-2.25,5.57-4.68,7.15-2.44,1.57-6.1,2.36-10.98,2.36Z"/>
    <path class="cls-2" d="M181.03,90.32c-5.38,0-9.22-1.46-11.52-4.38-2.3-2.92-2.88-7.09-1.74-12.51,1.14-5.43,3.31-9.6,6.5-12.52,3.19-2.92,7.84-4.38,13.95-4.38,5.56,0,9.47,1.46,11.73,4.38,2.26,2.92,2.81,7.09,1.67,12.52-1.14,5.43-3.31,9.6-6.5,12.51-3.19,2.92-7.89,4.38-14.09,4.38ZM182.4,84.03c3.42,0,6.02-.83,7.8-2.5,1.78-1.66,3.08-4.37,3.9-8.1.77-3.74.71-6.43-.21-8.07-.91-1.64-3.24-2.46-6.98-2.46-3.38,0-5.96.82-7.76,2.46-1.8,1.64-3.09,4.33-3.86,8.07-.82,3.74-.74,6.44.24,8.1.98,1.67,3.27,2.5,6.87,2.5Z"/>
    <path class="cls-2" d="M218.64,90.32c-2.92,0-5.37-.51-7.35-1.54-1.98-1.03-3.34-2.69-4.07-4.99-.73-2.3-.73-5.32,0-9.06.77-3.78,2.13-7.03,4.07-9.75,1.94-2.71,4.24-4.8,6.91-6.26,2.67-1.46,5.5-2.19,8.51-2.19,1.96,0,3.62.23,4.99.68,1.37.46,2.64,1.21,3.83,2.26l.48-2.26h7.45l-6.84,32.42h-6.36l.14-3.21c-1.73,1.32-3.53,2.3-5.4,2.94-1.87.64-3.99.96-6.36.96ZM221.86,84.71c3.33,0,6.34-1.14,9.03-3.42l3.42-16.07c-.82-.96-1.74-1.7-2.77-2.22-1.03-.52-2.36-.79-4-.79-3.28,0-6.02,1.08-8.21,3.25-2.19,2.17-3.72,5.28-4.58,9.33-.55,2.55-.7,4.55-.44,5.98.25,1.44.98,2.45,2.19,3.04,1.21.59,3,.89,5.37.89Z"/>
    <path class="cls-2" d="M242.44,104.41l9.98-47.19h6.43l-.27,3.21c1.73-1.32,3.53-2.3,5.4-2.94,1.87-.64,3.99-.96,6.36-.96,2.92,0,5.36.59,7.32,1.78,1.96,1.19,3.3,3.02,4.04,5.51.73,2.49.68,5.69-.14,9.61-1.23,5.84-3.37,10.11-6.43,12.82-3.06,2.71-7.14,4.07-12.24,4.07-3.92,0-7.07-.91-9.44-2.74l-3.56,16.82h-7.45ZM262.21,84.71c3.19,0,5.74-.89,7.66-2.67,1.92-1.78,3.31-4.67,4.17-8.69.82-3.83.8-6.65-.07-8.45-.87-1.8-3.12-2.7-6.77-2.7-3.38,0-6.41,1.14-9.1,3.42l-3.42,16.21c.82.87,1.83,1.56,3.04,2.09,1.21.53,2.7.79,4.48.79Z"/>
    <path class="cls-2" d="M293.26,90.32c-2.6,0-4.43-.68-5.51-2.05-1.07-1.37-1.31-3.49-.72-6.36l8.14-38.37h7.45l-8,37.68c-.27,1.28-.27,2.14,0,2.6.27.46.93.68,1.98.68s2.19-.14,3.28-.41l-1.16,5.4c-.91.32-1.79.54-2.63.65-.84.11-1.79.17-2.84.17Z"/>
    <path class="cls-2" d="M317.74,90.32c-2.92,0-5.37-.51-7.35-1.54-1.98-1.03-3.34-2.69-4.07-4.99-.73-2.3-.73-5.32,0-9.06.77-3.78,2.13-7.03,4.07-9.75,1.94-2.71,4.24-4.8,6.91-6.26,2.67-1.46,5.5-2.19,8.51-2.19,1.96,0,3.62.23,4.99.68,1.37.46,2.64,1.21,3.83,2.26l.48-2.26h7.45l-6.84,32.42h-6.36l.14-3.21c-1.73,1.32-3.53,2.3-5.4,2.94-1.87.64-3.99.96-6.36.96ZM320.95,84.71c3.33,0,6.34-1.14,9.03-3.42l3.42-16.07c-.82-.96-1.74-1.7-2.77-2.22-1.03-.52-2.36-.79-4-.79-3.28,0-6.02,1.08-8.21,3.25-2.19,2.17-3.72,5.28-4.58,9.33-.55,2.55-.7,4.55-.44,5.98.25,1.44.98,2.45,2.19,3.04,1.21.59,3,.89,5.37.89Z"/>
    <path class="cls-2" d="M344.68,89.63l6.84-32.42h6.84l-.34,3.42c1.69-1.14,3.62-2.11,5.81-2.91,2.19-.8,4.51-1.2,6.98-1.2,3.97,0,6.75,1.05,8.34,3.15,1.59,2.1,1.98,5.08,1.16,8.96l-4.45,21h-7.39l4.38-20.65c.5-2.51.39-4.26-.34-5.27-.73-1-2.58-1.5-5.54-1.5-1.69,0-3.42.34-5.2,1.03-1.78.68-3.33,1.57-4.65,2.67l-4.99,23.73h-7.46Z"/>
    <path class="cls-2" d="M396.39,90.32c-2.78,0-5.16-.58-7.15-1.74-1.98-1.16-3.36-2.98-4.14-5.44-.78-2.46-.75-5.65.07-9.57,1.28-5.84,3.54-10.13,6.8-12.89,3.26-2.76,7.24-4.14,11.93-4.14,3.97,0,7.11.94,9.44,2.8l3.35-15.8h7.46l-9.78,46.09h-6.36l.14-3.21c-1.73,1.32-3.53,2.3-5.4,2.94-1.87.64-3.99.96-6.36.96ZM399.6,84.71c3.33,0,6.34-1.14,9.03-3.42l3.49-16.21c-1.69-1.92-4.17-2.87-7.45-2.87-2.92,0-5.43.9-7.52,2.7-2.1,1.8-3.58,4.71-4.45,8.72-.82,3.88-.74,6.69.24,8.45.98,1.75,3.2,2.63,6.67,2.63Z"/>
  </g>
  <g>
    <path class="cls-2" d="M134.72,126.23l3.81-18.05h2.69l6.61,13.28,2.8-13.28h3.03l-3.81,18.05h-2.69l-6.59-13.25-2.8,13.25h-3.05Z"/>
    <path class="cls-2" d="M158.15,126.51c-1.48,0-2.57-.44-3.28-1.32-.71-.88-.89-2.17-.53-3.87l1.77-8.38h3.05l-1.77,8.38c-.22,1.08-.16,1.84.2,2.26.35.42,1.07.63,2.16.63.75,0,1.47-.14,2.16-.42.69-.28,1.32-.65,1.88-1.12l2.07-9.72h3.03l-2.8,13.28h-2.77l.14-1.37c-.69.47-1.49.86-2.38,1.18-.9.32-1.87.48-2.91.48Z"/>
    <path class="cls-2" d="M169.67,126.23l2.8-13.28h2.8l-.14,1.54c.71-.41,1.54-.78,2.48-1.12.94-.34,1.86-.57,2.76-.7l-.48,2.33c-.54.09-1.13.23-1.78.41s-1.27.37-1.86.59c-.6.22-1.1.43-1.51.66l-2.02,9.58h-3.05Z"/>
    <path class="cls-2" d="M184.46,126.51c-1.48,0-2.57-.44-3.28-1.32-.71-.88-.89-2.17-.53-3.87l1.77-8.38h3.05l-1.77,8.38c-.22,1.08-.16,1.84.2,2.26.35.42,1.07.63,2.16.63.75,0,1.47-.14,2.16-.42s1.32-.65,1.88-1.12l2.07-9.72h3.03l-2.8,13.28h-2.77l.14-1.37c-.69.47-1.49.86-2.38,1.18-.9.32-1.87.48-2.91.48Z"/>
    <path class="cls-2" d="M202.43,126.23l3.81-18.05h3.05l3.25,11.69,8.16-11.69h3.22l-3.81,18.05h-3.03l2.77-13.09-7.01,9.98h-1.85l-2.77-9.98-2.77,13.09h-3.03Z"/>
    <path class="cls-2" d="M229.05,126.51c-1.2,0-2.2-.21-3.01-.63-.81-.42-1.37-1.1-1.67-2.05-.3-.94-.3-2.18,0-3.71.32-1.55.87-2.88,1.67-3.99.79-1.11,1.74-1.97,2.83-2.56,1.09-.6,2.26-.9,3.49-.9.8,0,1.49.09,2.05.28s1.08.5,1.57.92l.2-.92h3.05l-2.8,13.28h-2.61l.06-1.32c-.71.54-1.45.94-2.21,1.21-.77.26-1.63.39-2.61.39ZM230.37,124.21c1.36,0,2.6-.47,3.7-1.4l1.4-6.59c-.34-.39-.71-.7-1.13-.91-.42-.21-.97-.32-1.64-.32-1.34,0-2.47.44-3.36,1.33-.9.89-1.52,2.16-1.88,3.83-.22,1.05-.29,1.86-.18,2.45.1.59.4,1,.9,1.25.49.24,1.23.36,2.2.36Z"/>
    <path class="cls-2" d="M244.43,126.51c-.92,0-1.78-.07-2.58-.2-.8-.13-1.46-.29-1.96-.48l.56-2.58c.58.24,1.24.43,1.98.56s1.45.2,2.14.2c1.05,0,1.81-.09,2.3-.28.49-.19.79-.55.92-1.09.09-.39.03-.7-.2-.92s-.59-.43-1.09-.62c-.5-.19-1.14-.41-1.91-.67-.73-.26-1.35-.55-1.86-.85-.51-.31-.87-.71-1.08-1.19-.21-.49-.23-1.12-.08-1.91.26-1.21.88-2.15,1.85-2.82.97-.66,2.47-1,4.51-1,.77,0,1.48.06,2.14.17s1.23.25,1.7.42l-.53,2.55c-.47-.21-1.01-.36-1.62-.48-.62-.11-1.2-.17-1.74-.17-.97,0-1.72.08-2.24.25-.52.17-.84.5-.95,1.01-.11.52.07.89.53,1.11s1.23.51,2.3.88c.97.32,1.73.65,2.27,1.01.54.35.9.78,1.06,1.27.17.5.17,1.14,0,1.92-.28,1.31-.92,2.28-1.92,2.93-1,.64-2.5.97-4.5.97Z"/>
    <path class="cls-2" d="M256.77,126.51c-.92,0-1.78-.07-2.58-.2-.8-.13-1.46-.29-1.96-.48l.56-2.58c.58.24,1.24.43,1.98.56s1.45.2,2.14.2c1.05,0,1.81-.09,2.3-.28.49-.19.79-.55.92-1.09.09-.39.03-.7-.2-.92s-.59-.43-1.09-.62c-.5-.19-1.14-.41-1.91-.67-.73-.26-1.35-.55-1.86-.85-.51-.31-.87-.71-1.08-1.19-.21-.49-.23-1.12-.08-1.91.26-1.21.88-2.15,1.85-2.82.97-.66,2.47-1,4.51-1,.77,0,1.48.06,2.14.17s1.23.25,1.7.42l-.53,2.55c-.47-.21-1.01-.36-1.62-.48-.62-.11-1.2-.17-1.74-.17-.97,0-1.72.08-2.24.25-.52.17-.84.5-.95,1.01-.11.52.07.89.53,1.11s1.23.51,2.3.88c.97.32,1.73.65,2.27,1.01.54.35.9.78,1.06,1.27.17.5.17,1.14,0,1.92-.28,1.31-.92,2.28-1.92,2.93-1,.64-2.5.97-4.5.97Z"/>
    <path class="cls-2" d="M270.41,126.51c-1.2,0-2.2-.21-3.01-.63-.81-.42-1.37-1.1-1.67-2.05-.3-.94-.3-2.18,0-3.71.32-1.55.87-2.88,1.67-3.99.79-1.11,1.74-1.97,2.83-2.56,1.09-.6,2.26-.9,3.49-.9.8,0,1.49.09,2.05.28s1.08.5,1.57.92l.2-.92h3.05l-2.8,13.28h-2.61l.06-1.32c-.71.54-1.45.94-2.21,1.21-.77.26-1.63.39-2.61.39ZM271.73,124.21c1.36,0,2.6-.47,3.7-1.4l1.4-6.59c-.34-.39-.71-.7-1.13-.91-.42-.21-.97-.32-1.64-.32-1.34,0-2.47.44-3.36,1.33-.9.89-1.52,2.16-1.88,3.83-.22,1.05-.29,1.86-.18,2.45.1.59.4,1,.9,1.25.49.24,1.23.36,2.2.36Z"/>
    <path class="cls-2" d="M285.97,131.16c-.3,0-.67-.01-1.12-.04-.45-.03-.88-.06-1.3-.1-.42-.04-.75-.08-1-.14l.53-2.44c.37.13.85.22,1.43.28s1.06.08,1.46.08c1.36,0,2.5-.21,3.42-.62.92-.41,1.48-1.1,1.68-2.07l.22-1.01c-1.27.75-2.72,1.12-4.34,1.12-1.18,0-2.19-.22-3.03-.66-.84-.44-1.42-1.13-1.75-2.07-.33-.94-.34-2.15-.04-3.63.49-2.28,1.4-4.05,2.73-5.31s2.96-1.89,4.86-1.89c.97,0,1.78.13,2.42.39s1.21.66,1.7,1.21l.48-1.32h2.61l-2.69,12.69c-.35,1.63-1.2,2.95-2.52,3.98-1.33,1.03-3.24,1.54-5.75,1.54ZM288.21,123.93c.71,0,1.36-.11,1.95-.32s1.13-.5,1.64-.85l1.34-6.36c-.71-.93-1.74-1.4-3.08-1.4-1.25,0-2.29.42-3.12,1.27-.83.85-1.41,2.04-1.72,3.57-.22,1.08-.28,1.92-.17,2.52s.42,1.01.94,1.23c.51.22,1.26.34,2.23.34Z"/>
    <path class="cls-2" d="M304.43,126.51c-1.46,0-2.68-.25-3.66-.76-.98-.5-1.67-1.27-2.06-2.3s-.42-2.33-.08-3.9c.45-2.13,1.3-3.81,2.56-5.04,1.26-1.23,3.08-1.85,5.45-1.85,1.33,0,2.38.25,3.17.76.78.5,1.32,1.19,1.61,2.05.29.86.32,1.81.1,2.86l-.5,2.47h-9.72c-.13,1.29.11,2.18.73,2.66.62.49,1.79.73,3.53.73.67,0,1.37-.07,2.1-.2.73-.13,1.38-.3,1.96-.5l-.48,2.24c-.65.26-1.38.46-2.19.59-.8.13-1.64.2-2.52.2ZM301.71,118.8h7.03l.2-.92c.21-.92.13-1.63-.24-2.14-.36-.51-1.18-.77-2.45-.77-1.42,0-2.46.31-3.12.92-.66.62-1.14,1.59-1.42,2.91Z"/>
    <path class="cls-2" d="M319.31,126.23l3.81-18.05h8.74c1.64,0,2.84.42,3.6,1.26.76.84.98,2.03.66,3.56-.21.97-.58,1.79-1.11,2.45-.53.66-1.16,1.16-1.89,1.5.82.24,1.42.68,1.81,1.3s.44,1.55.18,2.76c-.75,3.48-2.97,5.21-6.67,5.21h-9.14ZM322.85,123.98h5.44c1.08,0,1.92-.23,2.52-.69.6-.46,1.02-1.26,1.26-2.4.21-.93.11-1.63-.29-2.09-.4-.46-1.26-.69-2.56-.69h-5.13l-1.23,5.86ZM324.55,115.89h5.27c1.03,0,1.81-.24,2.35-.71.54-.48.9-1.12,1.06-1.92.13-.62.16-1.13.1-1.54-.07-.41-.3-.72-.71-.92-.41-.21-1.08-.31-1.99-.31h-4.93l-1.15,5.41Z"/>
    <path class="cls-2" d="M337,126.23l2.8-13.28h2.8l-.14,1.54c.71-.41,1.54-.78,2.48-1.12.94-.34,1.86-.57,2.76-.7l-.48,2.33c-.54.09-1.13.23-1.78.41s-1.27.37-1.86.59c-.6.22-1.1.43-1.51.66l-2.02,9.58h-3.05Z"/>
    <path class="cls-2" d="M352.77,126.51c-2.2,0-3.78-.6-4.72-1.79-.94-1.2-1.18-2.9-.71-5.13.47-2.22,1.35-3.93,2.66-5.13,1.31-1.2,3.21-1.79,5.72-1.79,2.28,0,3.88.6,4.81,1.79.92,1.2,1.15,2.91.69,5.13-.47,2.22-1.35,3.93-2.66,5.13-1.31,1.2-3.23,1.79-5.77,1.79ZM353.33,123.93c1.4,0,2.47-.34,3.2-1.02.73-.68,1.26-1.79,1.6-3.32.32-1.53.29-2.63-.08-3.31-.37-.67-1.33-1.01-2.86-1.01-1.38,0-2.44.34-3.18,1.01-.74.67-1.27,1.78-1.58,3.31-.34,1.53-.3,2.64.1,3.32.4.68,1.34,1.02,2.82,1.02Z"/>
    <path class="cls-2" d="M367.79,126.51c-1.42,0-2.4-.38-2.94-1.13-.54-.76-.67-1.79-.39-3.1l1.49-6.95h-1.96l.5-2.38h1.96l.64-3.05,3.22-.92-.84,3.98h3.53l-.7,2.38h-3.33l-1.43,6.78c-.19.86-.14,1.42.14,1.68.28.26.84.39,1.68.39.52,0,1.07-.09,1.65-.28l-.45,2.16c-.82.3-1.75.45-2.77.45Z"/>
    <path class="cls-2" d="M372.87,126.23l4.01-18.89h3.05l-1.49,6.89c.67-.47,1.44-.84,2.31-1.13.87-.29,1.81-.43,2.82-.43,1.61,0,2.74.42,3.41,1.28.66.85.83,2.08.49,3.68l-1.82,8.6h-3.03l1.79-8.46c.21-1.03.15-1.75-.15-2.16-.31-.41-1.04-.62-2.2-.62-.67,0-1.39.14-2.14.43-.76.29-1.41.67-1.95,1.13l-2.05,9.67h-3.05Z"/>
    <path class="cls-2" d="M395.29,126.51c-1.46,0-2.68-.25-3.66-.76-.98-.5-1.67-1.27-2.06-2.3s-.42-2.33-.08-3.9c.45-2.13,1.3-3.81,2.56-5.04,1.26-1.23,3.08-1.85,5.45-1.85,1.33,0,2.38.25,3.17.76.78.5,1.32,1.19,1.61,2.05.29.86.32,1.81.1,2.86l-.5,2.47h-9.72c-.13,1.29.11,2.18.73,2.66.62.49,1.79.73,3.53.73.67,0,1.37-.07,2.1-.2.73-.13,1.38-.3,1.96-.5l-.48,2.24c-.65.26-1.38.46-2.19.59-.8.13-1.64.2-2.52.2ZM392.57,118.8h7.03l.2-.92c.21-.92.13-1.63-.24-2.14-.36-.51-1.18-.77-2.45-.77-1.42,0-2.46.31-3.12.92-.66.62-1.14,1.59-1.42,2.91Z"/>
    <path class="cls-2" d="M406.91,126.51c-1.06,0-1.82-.28-2.26-.84-.44-.56-.54-1.43-.29-2.61l3.33-15.72h3.05l-3.28,15.44c-.11.52-.11.88,0,1.07s.38.28.81.28.9-.06,1.35-.17l-.48,2.21c-.37.13-.73.22-1.08.27s-.73.07-1.16.07Z"/>
  </g>
</svg>