<?xml version="1.0" encoding="UTF-8"?>
<svg id="Layer_1" data-name="Layer 1" xmlns="http://www.w3.org/2000/svg" viewBox="0 0 216.19 42.1">
  <defs>
    <style>
      .cls-1 {
        fill: #010101;
      }

      .cls-1, .cls-2, .cls-3 {
        stroke-width: 0px;
      }

      .cls-3 {
        fill: #fff;
      }
    </style>
  </defs>
  <g id="Layer_2" data-name="Layer 2">
    <g>
      <path class="cls-1" d="M53.89,34.8s-.1-.1,0,0c.2-1.8-.2-3.4-1.2-4.9s-2.6-2.6-4.4-2.9c-.2,0-.4-.1-.6-.1h-.1c-1.9-1.8-3.8-2.7-4.5-3,0-.1,0-.2.1-.3h.1c2-.9,3.2-2.3,3.4-4.2.2-1.5-.2-3.2-1.1-4.3v-.1c.2-2-.1-3.8-.9-5.4-.7-1.2-1.6-2.1-2.8-2.7h0c-.3-1.1-1.7-1.9-3.2-1.9-1.2,0-2.4.6-2.9,1.5-1.8.6-4.5,2.3-5.5,6.6-1.2.9-2,2.3-2.2,3.8-.2,1.7.3,3.3,1.5,4.6-1.1,0-3,.1-5.1.5h-.1c-1.7-1.2-3.8-1.6-5.8-1.1-.1,0-.1.1-.2.1-.5-.2-1.1-.3-1.8-.4h-.1c-.3-.9-.8-1.7-1.4-2.4l-.3-.2h0c-.1-.7-.3-1.4-.4-1.6-.2-.6-.5-1.4-1.3-2.2-.5-.5-1.1-.9-1.5-1.1.1-.2.1-.4.2-.5v-.1s.2-2,.5-3.3h0c.7-4.3.7-4.4.7-4.4h0c0-.4-.1-.7-.4-1-.3-.3-.8-.5-1.3-.5-.7,0-1.4.4-1.8,1-.4.4-.6.8-.7,1.3-.7-1.4-1.6-3.2-2.4-4.4v-.1c-.2-.4-.7-.8-1.4-.8-.2,0-.4,0-.6.1-.4-.3-.8-.4-1.2-.4-.2,0-.4,0-.6.1-.7.2-1.2.9-1.2,1.7-.5.2-.9.6-1,1.2-.1.4,0,.7,0,.9v.1s0,.1-.1.1c-.4.6-.6,1.9.9,5.8h0c0,.1.1.2.1.3.3.7.8,2,1.5,3.2.5.7.9,1.3,1.3,1.7-.3.4-.7,1.1-.9,1.9-.2,1-.1,2.2.3,3.3.1.5.3.9.6,1.3h0v.1c-.3,2.2.7,4.4,2.5,5.9.4.2.7.4,1,.6.3.8.8,1.6,1.6,2.3.5.4,1.2.8,1.8,1h0c.7,1,1.8,1.7,3.1,2.1.3.1.7.2,1,.2l.1.1c.6.6,1.5,1.1,2.5,1.4-.2,1.3,0,2.3.3,3h36.8c.1-1.1-.3-2.4-.9-3.5Z"/>
      <polygon class="cls-2" points="182.89 38.3 9.29 38.3 7.89 42.1 181.49 42.1 182.89 38.3"/>
      <path class="cls-2" d="M111.49,15.4c-4.5.9-10.6,4.2-10.5,10.3,0,3.4,4.2,5.5,9.1,5.3,2.7-.1,5.3-.6,5.6-.6l1.8-4.6c-2.3.4-4.6.9-6.5.2-3.2-1.3-1.2-4.6,1-5.7,1-.5,2.3-.9,4-.8.7,0,2.3,0,3,1.5l2.2-5.4c-3.8-1-7.7-.6-9.7-.2ZM135.89,15.3l-2,5.6h-3.7l2-5.6h-7.1l-5.7,15.3h7.1l1.9-5.1h3.7l-1.9,5.1h7.1l5.7-15.3s-7.1,0-7.1,0ZM93.69,15.3l-5.7,15.4h7.5l5.7-15.3h-7.5v-.1ZM78.89,15.3l-5.5,8.3s.3-4.3.4-5.4c.1-.8,0-2.9-1.9-2.9h-8.6l-5.7,15.3h6.8l4-11.1-.9,11.1h6l7.5-10.8-4,10.9h6.8l5.7-15.3-10.6-.1ZM209.89,15.3l-3.8,10.5c.1-1.1.3-5.3.4-7.7.1-1-.2-1.7-.6-2.2-.6-.6-1.3-.6-1.3-.6h-8.6l-5.7,15.3h6.3l4-10.9-.6,11h10.5l5.7-15.3h-6.3v-.1ZM183.99,15.3l-5.7,15.3h7.5l5.7-15.3h-7.5ZM152.59,19.4h8.5l1.5-4h-15.4l-5.8,15.3h15.6l1.5-4.1h-8.7l.6-1.7h8.1l1.4-3.7h-8.1l.8-1.8ZM173.89,15.3h-7.3l-5.6,15.4h14.5l1.9-5h-7.3l3.8-10.4Z"/>
      <path class="cls-3" d="M53.69,38.3h-1.4c.5-.6.8-1.2,1.1-1.9.2.7.3,1.3.3,1.9"/>
      <path class="cls-3" d="M29.79,22.6s.5,0,.9.2c.5.2,1.6,1.2,2.2,1.3.1,0,.4-.1.1-.3-.1-.1-.7-.7-.5-1h0c.1-.1.2-.2.3-.1.8.2,1.5.3,1.8.4h.3c.1-.1,0-.1-.1-.1-1.3-.3-2.7-.9-3.7-1.7-1.3-1-2.1-2.6-1.8-4.3.2-1.2.8-2.2,1.7-3,.4-.3,1-.5,1.2-.6.5-.2-.3-.3-.4-.3-.2,0-.2-.2,0-.9.9-2.9,2.9-4.1,4.5-4.7.3-.1.7-.2,1-.3.5-.1.3-.3-.2-.3,0,0-.2,0-.1-.1,0,0,.1-.1.3-.2.1-.2.7-.4,1.3-.4,1.1,0,2,.6,2.1,1.1,0,0,0,.1-.1.1-.2,0-.4.1-.1.2.1,0,.3.1.7.3h.1c.8.4,3.3,1.9,3.1,6.2h0v.8c-.2,0-.3.1-.2.2.1.1.4.5.6.8.6.9.8,2.1.7,3.3-.2,1.5-1.1,2.4-2.1,3-.4.2-1.4.7-2.6,1-.2.1-.1.4,1,.4.1,0,.3,0,.4.1.1.2-.1.7-.6,1-.4.3-.1.3.5.1.2,0,.6.2.7.2,1,.4,3.4,1.7,5.4,4.2,1.3,1.8,1.7,3.3,1.3,4.2s-1.5,1-1.5,1h0c-4.5.7-12.3-.5-17.7-2.1-1-.3-2.4-.8-3.6-1.3,1.2-2.5.7-5.9-1.2-8l-.1-.1c1.8-.3,3.4-.4,4.4-.3"/>
      <path class="cls-3" d="M51.69,30.6c.9,1.3,1.2,2.8.9,4.3-.3,1.3-.9,2.4-1.9,3.2,0-1.1-.2-2.3-.9-3.3.3-.2.6-.6.8-1,.6-1.3.1-3.1-1.4-5.4h0l-.1-.1c1,.5,2,1.3,2.6,2.3"/>
      <path class="cls-3" d="M24.49,23.8c1.8,2,2.1,5.1.7,7.4-1.5,2.5-4.3,3.7-6.9,3-.4-.1-.7-.2-1-.4.2,0,.5-.1.7-.2,2.5-.7,4.4-3,4.7-5.9.2-1.7-.3-3.5-1.4-4.8-.4-.5-.8-.9-1.3-1.2,1.7.1,3.4.8,4.5,2.1"/>
      <path class="cls-3" d="M20.39,23.7c.9,1.1,1.3,2.5,1.1,4-.2,2.3-1.8,4.2-3.8,4.8-1.7.5-3.4.1-4.5-.7,2.5,0,4.9-1.8,5.8-4.3.4-1.3.4-2.6-.1-3.8-.2-.6-.5-1.1-.9-1.5,1,.2,1.8.7,2.4,1.5"/>
      <path class="cls-3" d="M16.39,23.8c.1-.5.1-1,.1-1.4,1.2,1.2,1.7,3,1.2,4.8-.8,2.4-3.3,3.9-5.7,3.4-1-.2-2.1-.8-2.8-1.7.4.1.9.1,1.3.1.8,0,1.6-.2,2.4-.5,1.8-.8,3.1-2.7,3.5-4.7"/>
      <path class="cls-3" d="M14.69,19.9h0c.6,1,.9,2.4.6,3.7-.3,1.7-1.4,3.1-2.8,3.7-1.6.7-3.5.5-5.1-.7-1.2-.9-1.9-2.2-2.1-3.6h0c.1.1.2.2.4.3.9.7,2,1,3.3,1,.8,0,1.4-.2,1.5-.2,2.1-.6,3.2-1.9,3.7-2.9.2-.4.4-.9.5-1.3"/>
      <path class="cls-3" d="M1.39,4.7h0q.1-.1.2-.1h.4c.3.1.6.6.7,1.1.2,1.7,1,2.8,1.1,2.9,0,.1.1.1.2.1h.1c0-.1,0-.3-.1-.4,0,0-.8-1.1-1-2.7,0-.7-.4-1.3-.9-1.5-.2,0-.3-.1-.4,0-.1-.2-.1-.4-.2-.4,0-.3-.1-.7.4-.9h.1c.4,0,.8.1,1.3,1.8.4,1.5,1.4,3,1.4,3,0,.1.1.1.2.1h.1c.2-.1.2-.2.1-.4,0,0-1-1.5-1.4-2.9-.1-.7-.4-1.4-.9-1.8,0-.2-.1-.4-.1-.5-.1-.2-.2-.7.3-.9h.3c.4,0,.6.3.6.6v.1l2.1,5.1s0,.1.1.1c0-.1.1,0,.2-.1s.2-.2.1-.3L4.39,1.8c0-.1.1-.2.2-.2.1-.1.2-.1.3-.1.3,0,.5.3.5.3,0,0,2.8,5.3,3.3,6.2-.2.4-.3.7-.4.8,0,.1.1.3.1.1.2-.2.4-.5.6-.7h0c.2-.3.6-1.3.7-1.6.1-.5.3-1.2.6-1.6.2-.4.6-.5.8-.5.3,0,.6.2.5.3,0,.1-.7,4.2-.7,4.2-.2.9-.3,2.1-.4,2.8,0,.2,0,.3-.1.5v.2c-.1.6-.4,1.1-.4,1.1l.2,1h0c.1.4.2.9.2,1,.2.6,0,.9.1,1,.1.2.5-.6.6-1,.1-.3,0-.9-.1-1.4.3.1.7.4,1.2.8.7.7.9,1.3,1,1.7.1.5.4,1.4.4,2,0,.5-.2,3.3-3.5,4.2,0,0-.5.2-1.2.2s-1.7-.2-2.6-.8c-1.6-1.1-2.2-3.6-1.9-4.9.1-.6.4-1.1.6-1.4.2,0,.4,0,.5.1l.1.5c0,.1.3,1.3.8,1.7.3.2.8.2.9.2s.5,0,.6-.2v-.2s-.1,0-.2-.1c-.2,0-.7-.3-.8-.7-.1-.2-.3-1.1-.4-1.6.5-.5.5-.9-.2-.8-.4.1-.7-.1-1-.3-1.3-1-2.7-4.5-2.9-5.1-1.1-2.8-1.3-4.4-1-4.8"/>
      <path class="cls-3" d="M18.99,35.5h.7c2.4,0,4.7-1.3,6.3-3.5,1.3.6,2.8,1.1,3.8,1.4,2.9.9,6.4,1.6,9.5,2,2,.3,3.8.4,5.5.4,1.2,0,2.2-.1,3.2-.2.1,0,.3,0,.6-.2.7.8.9,1.9.8,2.8h-30c-.3-.4-.5-1.3-.4-2.7"/>
      <path class="cls-1" d="M35.59,15.1c.1.2.3.3.5.3.2.1.3.1.5.1h.5c.7,0,1.4-1.2,1.4-2.2s-.1-1.8-.8-2.2c-.1,0-.2-.1-.2-.1-.3-.1-.7-.1-1,0-.4.1-.7.4-.9.7s-.3.7-.4,1.1c-.1.4-.1.8-.1,1.2.1.4.2.8.5,1.1ZM35.39,13.4c0-.5.3-2,1.5-1.8.9.1,1.1.8,1.2,1.3v.1c.1.6-.1,1-.2,1.3-.1.1-.1.3-.2.4-.2.3-.5.6-.7.6h-.1c.4-.2.7-.7.8-1.4.1-.9-.3-1.6-.9-1.7-.3,0-.6.1-.8.4.2,0,.4.2.4.5s-.2.5-.4.5-.3-.1-.4-.3c0,.1-.1.3-.1.5,0,.5.1,1,.3,1.3l-.1-.1c-.2-.2-.3-.6-.4-1,.1-.3.1-.4.1-.6ZM42.39,17.7c-.1,0-.2.1-.1.1v.1l-.1.1c-.3.1-.6.2-.9.3-.7.2-1.5.2-2.3.1-1.2-.1-2.5-.4-3.7-.9-.1,0-.2-.1-.3-.1s-.1-.1-.2-.1h0c-.2-.1-.3.1-.3.2s.1.2.2.3c.3.2.6.3,1,.4.3.1.5.4.7.6.3.3.5.5.9.7.6.4,1.4.5,2.1.4.4-.1.7-.2,1-.4.2-.1.4-.3.6-.5.1-.1.3-.2.4-.3.1,0,.7-.3,1-.4,0,.1,0,.2.1.2s.1-.1.2-.3v-.3s-.1-.2-.3-.2ZM39.79,19.4c-.3.1-.7.1-1,.1s-.7-.1-1-.2c-.3-.2-.6-.4-.9-.7,1.2.3,2.5.5,3.8.3-.3.2-.6.4-.9.5ZM34.99,16.9c0-.1-.2-.1-.2-.1-.1,0-.3,0-.4.1-.3.1-.5.5-.5.7v.1h.1q.1,0,.1-.1c0-.1,0-.2.1-.2.1-.1.2-.2.6-.3.2,0,.3-.1.2-.2ZM43.19,12.7c-.1-.4-.3-.7-.6-.9s-.6-.2-.9-.2c-.1,0-.2,0-.2.1-.8.3-1.1,1-1.3,1.9-.3,1.1.1,2.3.8,2.5.2.1.4.1.4.1h.5c.2,0,.4-.1.5-.2.3-.2.6-.6.7-1,.2-.4.2-.8.3-1.2-.1-.3-.1-.7-.2-1.1ZM42.89,14.3c0,.2-.1.4-.2.5-.2.4-.4.7-.6.9-.1.1-.2.1-.3.1.4-.2.7-.8.7-1.4.1-.9-.3-1.6-.9-1.7-.3,0-.5.1-.8.4.2,0,.4.2.4.5s-.2.5-.4.5-.3-.1-.4-.3c0,.1-.1.3-.1.5-.1.6.1,1.1.4,1.4-.2-.1-.3-.4-.4-.7,0-.1-.1-.3-.1-.5,0-.4,0-.8.2-1.3v-.1c.2-.5.6-1.1,1.5-1,1.2.3,1.1,1.8,1,2.2Z"/>
    </g>
  </g>
</svg>