<?xml version="1.0" encoding="UTF-8"?>
<svg id="Layer_1" data-name="Layer 1" xmlns="http://www.w3.org/2000/svg" viewBox="0 0 413.51 95">
  <defs>
    <style>
      .cls-1 {
        fill: #da3743;
      }

      .cls-1, .cls-2 {
        stroke-width: 0px;
      }

      .cls-2 {
        fill: #333;
      }
    </style>
  </defs>
  <path class="cls-1" d="M83.36,0c-26.23-.02-47.52,21.23-47.54,47.46-.02,26.23,21.23,47.52,47.46,47.54,26.23.02,47.52-21.23,47.54-47.46,0-.01,0-.03,0-.04C130.83,21.28,109.58.01,83.36,0h0ZM83.36,59.37c-6.56,0-11.87-5.3-11.88-11.86s5.3-11.87,11.86-11.88c6.56,0,11.87,5.3,11.88,11.86,0,0,0,0,0,0,0,6.56-5.31,11.87-11.87,11.87h.01ZM0,47.5c0-6.56,5.31-11.87,11.87-11.87s11.87,5.31,11.87,11.87-5.31,11.87-11.87,11.87h0C5.31,59.37,0,54.06,0,47.5"/>
  <path class="cls-2" d="M243.82,38.41c6.7-.16,12.26,5.15,12.42,11.85,0,.23,0,.46,0,.69,0,.41-.06,1.35-.12,1.76-.07.67-.62,1.19-1.29,1.23h-17.34c.12,3.59,3.13,6.4,6.72,6.27,0,0,.01,0,.02,0,2.11.03,4.16-.67,5.8-2,.39-.49,1.1-.56,1.59-.17.06.05.12.11.17.17l2.28,3c.46.43.48,1.15.05,1.61-.05.06-.11.1-.17.15-2.8,2.41-6.38,3.72-10.08,3.69-8.08,0-13.71-6.45-13.71-14.19s5.64-14.06,13.66-14.06h0ZM248.82,49.14c-.17-2.72-2.48-4.81-5.21-4.69-3.28,0-5.39,2-5.74,4.69h11-.05ZM314.42,27.98h-27.52c-.61,0-1.11.5-1.11,1.11v4.81c0,.61.5,1.11,1.11,1.11h9.94v30c.04.61.55,1.08,1.16,1.07h5.45c.6-.02,1.09-.51,1.11-1.11v-30h9.94c.61,0,1.11-.5,1.11-1.11v-4.77c0-.61-.5-1.11-1.11-1.11-.01,0-.03,0-.04,0h-.04ZM355.87,38.42c-2.26,0-4.5.39-6.62,1.17v-10.33c-.03-.68-.57-1.23-1.25-1.28h-4.75c-.67.07-1.2.61-1.25,1.28v35.53c.03.7.59,1.26,1.29,1.29h2.71c.71,0,1.29-.58,1.3-1.29v-2.1c2.28,2.58,5.56,4.04,9,4,7.4.04,12.7-6.41,12.7-14.19s-5.07-14.09-13.09-14.09h-.04ZM355.23,60.05c-2.59.12-4.98-1.37-6-3.75v-9.68c1.7-1.02,3.64-1.54,5.62-1.52,4.45,0,6.74,3.63,6.74,7.45s-2.11,7.49-6.33,7.49h-.03ZM401.08,38.42c6.7-.16,12.26,5.15,12.42,11.85,0,.23,0,.46,0,.69,0,.41-.06,1.35-.12,1.76-.07.67-.62,1.19-1.29,1.23h-17.31c.12,3.59,3.13,6.4,6.72,6.27,0,0,.01,0,.02,0,2.11.03,4.16-.67,5.8-2,.39-.49,1.1-.56,1.59-.17.06.05.12.11.17.17l2.28,3c.46.43.48,1.15.05,1.61-.05.06-.11.1-.17.15-2.8,2.41-6.38,3.72-10.08,3.69-8.08,0-13.71-6.45-13.71-14.19s5.63-14.07,13.66-14.07h-.03ZM406.08,49.15c-.17-2.72-2.48-4.81-5.21-4.69-3.28,0-5.39,2-5.74,4.69h11-.05ZM212.95,38.41c-3.39-.01-6.61,1.45-8.84,4v-2.12c0-.71-.58-1.28-1.29-1.29h-2.88c-.71,0-1.28.58-1.29,1.29v35.52c.03.7.59,1.26,1.29,1.29h4.75c.7-.04,1.26-.59,1.31-1.29v-10.2c2.09.73,4.29,1.1,6.5,1.11,8.08,0,13.42-6.21,13.42-14.13-.02-8.2-5.59-14.18-12.97-14.18ZM211.6,60.04c-1.97.01-3.91-.52-5.6-1.54v-9.65c1.02-2.38,3.41-3.87,6-3.75,4.22,0,6.39,3.69,6.39,7.5s-2.34,7.44-6.79,7.44ZM276.1,38.41c-3.35-.1-6.56,1.34-8.71,3.91v-2c0-.71-.58-1.28-1.29-1.29h-3.1c-.71,0-1.28.58-1.29,1.29v24.5c.04.69.6,1.24,1.29,1.26h4.34c1.29,0,1.7-.29,1.7-1.29v-15.48c.79-2.56,3.18-4.28,5.86-4.22,3.28,0,4.69,2.17,4.69,5.69v14c0,.71.58,1.28,1.29,1.29h4.75c.7-.03,1.26-.59,1.29-1.29v-14c.02-6.57-2.21-12.37-10.82-12.37h0ZM325.28,38.41c-3.14.02-6.26.48-9.28,1.35-.67.16-1.08.82-.93,1.49.01.05.03.1.05.15l.59,3c-.03.65.47,1.19,1.11,1.22.14,0,.27-.01.41-.05,2.49-.62,5.05-.96,7.62-1,2.87,0,3.87,1.64,3.75,5.1-1.7-.48-3.45-.74-5.21-.76-6.85,0-10.78,3.69-10.78,8.5,0,5.8,3.75,9.26,9.14,9.26,3.17.05,6.23-1.18,8.49-3.4v1.46c0,.71.58,1.28,1.29,1.29h2.64c.71,0,1.28-.58,1.29-1.29v-14.54c.02-7.38-1.74-11.78-10.17-11.78h-.01ZM328.44,58.41c-1.02,1.73-2.85,2.82-4.86,2.87-1.96.2-3.71-1.23-3.91-3.19-.02-.19-.02-.39-.01-.59,0-2.4,1.7-3.87,4.8-3.87,1.37.02,2.73.29,4,.82v4l-.02-.04ZM173.86,28c-10.73.04-19.4,8.77-19.37,19.5,0,10.71,8.69,19.4,19.4,19.4s19.4-8.69,19.4-19.4c0-10.74-8.69-19.47-19.43-19.5ZM173.86,35.53c6.57.1,11.85,5.43,11.9,12-.09,6.56-5.47,11.8-12.03,11.71s-11.8-5.47-11.71-12.03c.09-6.48,5.36-11.69,11.84-11.71v.03ZM382.7,66.13c.71,0,1.29-.58,1.3-1.29v-4.77c0-.71-.58-1.28-1.29-1.29h-.21c-.62-.04-1.12-.54-1.16-1.16v-28.26c-.05-.71-.63-1.27-1.34-1.29h-4.7c-.7.04-1.25.59-1.3,1.29v32.14c.16,2.5,2.15,4.49,4.65,4.66h4l.05-.03Z"/>
</svg>