<?xml version="1.0" encoding="UTF-8"?>
<svg id="_レイヤー_1" data-name="レイヤー 1" xmlns="http://www.w3.org/2000/svg" xmlns:xlink="http://www.w3.org/1999/xlink" viewBox="0 0 130.75 26.75">
  <defs>
    <style>
      .cls-1 {
        clip-path: url(#clippath);
      }

      .cls-2 {
        fill: none;
      }

      .cls-2, .cls-3, .cls-4, .cls-5 {
        stroke-width: 0px;
      }

      .cls-6 {
        clip-path: url(#clippath-1);
      }

      .cls-3 {
        fill: #000;
      }

      .cls-4 {
        fill: #fa0;
      }

      .cls-7 {
        isolation: isolate;
      }

      .cls-5 {
        fill: #fff;
      }
    </style>
    <clipPath id="clippath">
      <rect class="cls-2" x="0" y="0" width="130.569" height="26.695"/>
    </clipPath>
    <clipPath id="clippath-1">
      <rect class="cls-2" x="0" y="0" width="130.75" height="26.75"/>
    </clipPath>
  </defs>
  <g class="cls-1">
    <g class="cls-7">
      <g class="cls-6">
        <path class="cls-5" d="M41.235,19.135c.045-.473.073-.99.088-1.537-.393-.095-2.633-.635-3.26-.786.02.422.031,1.098-.042,1.878-.17,1.807-.803,4.148-2.79,5.118.905.418,3.09,1.426,3.289,1.518.443-.219,2.265-1.401,2.715-6.192M34.939,23.254c2.338-1.141,2.522-4.671,2.491-6.153-.488-.145-.969-.328-1.359-.56-.86-.513-1.975-1.493-2.404-3.25-.25-1.021-.928-2.849-1.377-4.059l-.331-.901c-.083-.234-.227-.506-.414-.79l-4.393,2.064c.563.467,1.206.985,1.525,1.197.667.441,1.088.066,1.134.021.125-.121.327-.121.45.003.124.124.126.322.004.447-.277.282-1.038.658-1.94.062-.671-.443-2.56-2.061-2.633-2.124-.005-.004-.528-.425-1.141-.727l-.658-.312c-.996-.467-2.501-1.173-3.092-1.597-.518-.371-1.243-.103-1.567.232-.217.223-.324.643-.276,1.068.041.362.235,1.051,1.065,1.588.858.555,3.69,2.399,4.129,2.841l.193.183c.548.507,1.566,1.451,1.709,2.587.141,1.122,1.516,3.804,3.026,4.523.159.076.227.267.151.426-.076.159-.266.227-.426.151-1.722-.819-3.225-3.747-3.385-5.02-.114-.905-1.057-1.779-1.509-2.198l-.213-.201c-.125-.126-.583-.46-1.271-.932l-.97.456c-.198.292-.648,1.133-.683,1.99-.042.992-.808,1.973-1.092,2.303.053.315.185.755.39.919.059.047.113.064.184.056.278-.031.739-.333,1.082-.85.219-.331.549-1.006.308-1.815v-.007s-.003-.003-.003-.003c-.083-.319-.276-.905-.441-1.123-.107-.141-.078-.341.063-.448.141-.106.341-.078.447.063.222.294.406.853.494,1.153.452.107,1.516.456,2.054,1.456.612,1.136,2.837,4.19,4.059,4.76l.839.416c1.19.605,2.821,1.435,5.1,1.855.018.003.036.008.053.015.067.025.314.117.627.236M20.138,14.242c.023-.552.183-1.083.366-1.515l-2.008.943c-.26.716-.457,1.369-.495,1.766-.009.095-.009.175.002.238.071.421.232.717.431.794.171.066.419-.019.698-.237.131-.145.968-1.106,1.005-1.989M19.487,11.265l1.198-.609c-.261-.171-.534-.349-.817-.533-.103.537-.271.904-.298.961v.002c-.027.058-.055.119-.083.18M17.639,11.604c1.08-.287,1.351-.789,1.353-.794h0s0-.002,0-.002c.002-.005.22-.463.292-1.108-.178-.155-.334-.325-.466-.506l-1.708.991c-.088.253-.149.432-.156.451-.017.206-.012.731.214.925.037.032.148.128.47.043M16.678,7.379c.203.246.681.287.848.282.013,0,.026.002.038.003.005,0,.01-.002.014-.001.056.004.522.015.799-.537.075-.301.21-.569.399-.763.474-.491,1.323-.765,2.039-.498l4.145-2.582c-.177-.084-.285-.135-.291-.137-.015-.007-.032-.017-.046-.027-.028-.019-.693-.454-1.853-.004-1.349.523-2.573.904-2.583.907-.301.096-.842.333-1.014.561-.238.317-1.355,1.657-1.874,1.943-.333.184-.615.486-.656.703-.012.062-.002.106.035.15M29.389,5.474c.217.121.432.266.64.428l-4.604,2.342c-.177-.112-.376-.228-.59-.334l-.669-.317c-.399-.188-.917-.431-1.419-.677l4.427-2.568c.85.415,1.711.846,2.215,1.126"/>
        <path class="cls-4" d="M38.52,25.327c-.199-.092-2.384-1.101-3.289-1.518,1.988-.97,2.62-3.311,2.79-5.118.073-.78.063-1.457.042-1.879.626.151,2.867.691,3.26.786-.015.547-.043,1.064-.088,1.537-.451,4.791-2.272,5.973-2.715,6.192M34.312,23.018c-.017-.006-.035-.011-.053-.015-2.278-.42-3.91-1.25-5.1-1.855l-.839-.416c-1.222-.57-3.446-3.624-4.059-4.76-.538-1-1.602-1.349-2.054-1.455-.089-.3-.273-.859-.494-1.153-.106-.141-.307-.169-.447-.063-.141.107-.17.307-.063.448.165.218.358.804.441,1.123l.002.003s0,.005.002.007c.242.809-.089,1.484-.308,1.815-.343.517-.803.819-1.082.85-.07.008-.125-.009-.184-.056-.205-.164-.337-.604-.39-.919.284-.331,1.051-1.311,1.092-2.303.036-.857.486-1.698.684-1.99l.97-.456c.689.472,1.146.806,1.271.932l.213.201c.452.42,1.395,1.293,1.509,2.199.16,1.273,1.664,4.201,3.385,5.02.159.076.35.008.426-.151.076-.159.008-.35-.151-.426-1.51-.719-2.884-3.401-3.026-4.523-.142-1.136-1.161-2.08-1.709-2.587l-.193-.183c-.439-.442-3.272-2.286-4.129-2.841-.83-.537-1.024-1.225-1.065-1.587-.049-.426.059-.845.276-1.069.324-.336,1.05-.604,1.567-.232.591.423,2.096,1.129,3.092,1.597l.658.312c.612.302,1.135.723,1.141.727.073.063,1.962,1.681,2.633,2.124.902.597,1.664.22,1.94-.062.122-.125.12-.324-.004-.447-.123-.124-.324-.124-.45-.003-.046.045-.466.42-1.134-.021-.32-.212-.962-.73-1.525-1.197l4.393-2.064c.187.283.331.555.414.789l.331.901c.449,1.209,1.127,3.037,1.377,4.058.429,1.758,1.544,2.738,2.404,3.25.389.232.87.415,1.359.56.031,1.483-.153,5.012-2.491,6.153-.313-.119-.559-.211-.627-.236M19.133,16.231c-.279.218-.527.303-.698.237-.199-.077-.36-.373-.431-.794-.011-.063-.011-.143-.002-.238.037-.396.235-1.049.495-1.766l2.008-.943c-.183.432-.343.962-.366,1.515-.037.882-.873,1.844-1.005,1.989M19.569,11.085v-.002c.028-.056.196-.423.299-.961.283.184.555.361.816.533l-1.198.61c.028-.062.056-.123.083-.18M17.17,11.562c-.225-.194-.231-.719-.214-.925.007-.019.068-.198.156-.451l1.708-.992c.132.181.288.351.466.506-.072.646-.29,1.103-.293,1.108h0v.002c-.002.005-.273.507-1.353.794-.321.085-.433-.011-.47-.043M16.643,7.229c.041-.217.324-.519.656-.703.52-.287,1.636-1.627,1.874-1.943.172-.228.713-.465,1.014-.561.01-.003,1.234-.384,2.583-.907,1.16-.45,1.825-.015,1.853.004.014.009.031.02.046.027.006.002.114.053.291.137l-4.145,2.582c-.716-.267-1.565.007-2.039.498-.188.194-.323.462-.399.763-.277.552-.743.541-.799.537-.004,0-.009.002-.014.002-.012,0-.025-.004-.038-.003-.167.005-.645-.036-.848-.282-.036-.044-.047-.088-.035-.15M29.389,5.474c.217.121.432.266.64.428l-4.604,2.342c-.177-.112-.376-.228-.59-.333l-.669-.317c-.399-.188-.917-.431-1.419-.677l4.427-2.568c.85.415,1.711.846,2.215,1.126M41.971,17.355c.003-.15-.099-.281-.245-.316l-3.938-.949c-.1-.024-.207.002-.285.07-.075.066-.114.164-.107.263-.366-.119-.714-.261-.998-.43-.755-.45-1.734-1.311-2.111-2.853-.259-1.057-.945-2.906-1.398-4.13l-.327-.891c-.089-.254-.24-.546-.435-.851l1.583-.744c.212-.101.3-.355.198-.567l-.606-1.238c-.103-.211-.359-.297-.568-.192l-2.082,1.059c-.302-.257-.622-.486-.952-.67-.442-.246-1.137-.597-1.86-.954l3.437-1.994c.203-.118.27-.379.148-.581l-.711-1.182c-.121-.201-.384-.266-.584-.142l-4.526,2.819c-.354-.169-.598-.283-.651-.308-.153-.098-1.025-.592-2.413-.053-1.327.514-2.531.889-2.543.893-.101.032-.983.321-1.333.786-.363.482-1.342,1.585-1.673,1.769-.391.216-.881.645-.975,1.143-.005.029-.009.057-.012.085-.02.218.042.421.182.591.222.268.54.394.815.455L.205,18.704c-.201.123-.265.386-.144.589l.132.219c.121.202.383.268.587.149l15.533-9.011c-.016.288-.007,1.012.438,1.396.148.128.393.253.76.226L1.31,20.513c-.211.105-.298.361-.194.574l.112.229c.104.211.359.3.572.2l15.892-7.466c-.164.511-.288.99-.322,1.355-.014.145-.013.272.004.376.113.665.408,1.121.833,1.284.208.08.521.106.915-.08.087.336.249.761.551,1.005.19.153.417.22.656.193.513-.057,1.133-.513,1.544-1.133.279-.423.443-.879.487-1.342.015-.16.013-.321-.001-.481.416.144,1.017.447,1.341,1.048.628,1.165,2.93,4.373,4.351,5.036l.818.406c1.22.621,2.89,1.469,5.242,1.908.011.005.024.009.035.013-.021.038-.036.079-.04.124-.011.134.063.261.184.317l4.091,1.888c.07.032.15.038.224.016.132-.038,3.232-1.034,3.367-8.628"/>
        <path class="cls-3" d="M81.923,17.458c0,1.942-1.053,2.847-3.312,2.847h-1.871c-.134,0-.243-.109-.243-.243v-7.151c0-.134.103-.306.218-.36.48-.212,1.828-.67,3.011-.67h.01c.568,0,1.088.167,1.466.47.479.384.721.962.721,1.717v3.389ZM80.912,9.55c-.232-.018-.468-.028-.702-.028-.978,0-1.951.161-2.973.491l-.509.181c-.163.059-.232-.019-.232-.16v-5.593c0-.134-.109-.243-.243-.243h-2.048c-.134,0-.243.109-.243.243v17.85c0,.134.109.243.243.243h4.345c5.192,0,6.142-1.681,6.142-4.991v-3.141c0-3.063-1.237-4.65-3.781-4.852"/>
        <path class="cls-3" d="M114.26,17.764c0,1.737-1.039,2.732-2.85,2.732s-2.85-.996-2.85-2.732v-3.151c0-1.736,1.039-2.732,2.85-2.732s2.85.996,2.85,2.732v3.151ZM111.41,9.522c-3.822,0-5.603,1.653-5.603,5.203v2.928c0,3.549,1.78,5.202,5.603,5.202s5.602-1.653,5.602-5.202v-2.928c0-3.55-1.78-5.203-5.602-5.203"/>
        <path class="cls-3" d="M100.561,4.996c-.134.042-.23.181-.23.314v16.98c0,.134.109.243.243.243h2.31c.134,0,.243-.109.243-.243V4.44c0-.134-.107-.209-.234-.169l-2.332.726Z"/>
        <path class="cls-3" d="M93.553,3.792c.094-.096.237-.087.318.02l1.216,1.591c.082.107.056.252-.057.324l-3.642,2.326c-.111.07-.272.046-.358-.058l-.583-.707c-.086-.105-.079-.269.013-.362l3.092-3.135Z"/>
        <path class="cls-3" d="M127.474,15.749c0,1.737-1.039,2.732-2.85,2.732s-2.85-.996-2.85-2.732v-1.135c0-1.737,1.039-2.732,2.85-2.732s2.85.996,2.85,2.732v1.135ZM129.593,11.471l.977-.49v-1.459h-5.86v.002s-.086-.002-.086-.002c-3.822,0-5.602,1.653-5.602,5.203v.913c0,3.549,1.78,5.202,5.602,5.202,1.187,0,2.191-.165,2.985-.489l-.053.021c.086-.035.136-.004.136.076v.9c0,1.55-1.261,2.811-2.811,2.811h-3.795c-.134,0-.243.109-.243.243v2.048c0,.134.109.243.243.243h3.832c2.927,0,5.308-2.381,5.308-5.308v-6.661c0-1.286-.232-2.299-.704-3.098l.016.023c-.045-.08-.026-.14.053-.18"/>
        <path class="cls-3" d="M62.887,4.197h-13.54c-.134,0-.243.109-.243.243v2.048c0,.134.109.243.243.243h5.051c.134,0,.241.107.242.24l-.035,15.321c.001.133.109.24.242.24h2.503c.134,0,.243-.109.243-.243V6.974c0-.134.109-.243.243-.243h5.051c.134,0,.243-.109.243-.243v-2.048c0-.134-.109-.243-.243-.243"/>
        <path class="cls-3" d="M68.546,20.051c0,.146-.093.304-.224.361h0c-.073.033-.134.061-.134.061-.744.324-1.392.367-2.478.367-1.326,0-2.091-.971-2.091-2.394,0-1.247.775-2.053,1.974-2.053h2.71c.134,0,.243.109.243.243v3.415ZM67.043,9.522h-4.284c-.134,0-.243.109-.243.243v1.873c0,.134.109.243.243.243h3.855c1.642,0,1.931.557,1.931,1.726v.62c0,.134-.109.243-.243.243h-3.228c-2.338,0-4.157,1.765-4.157,3.981,0,2.737,1.805,4.404,4.327,4.404,1.6,0,2.717-.625,3.126-.897l-.01.007c.141-.1.185-.077.185.097v.228c0,.134.109.243.243.243h2.048c.134,0,.243-.109.243-.243v-8.683c0-2.787-1.283-4.085-4.037-4.085"/>
        <path class="cls-3" d="M94.599,14.786c0,.134-.109.243-.243.243h-4.448c-.134,0-.243-.109-.243-.243v-.467c0-1.549.931-2.437,2.556-2.437,1.556,0,2.378.843,2.378,2.437v.467ZM96.025,10.722c-.828-.808-2.082-1.2-3.833-1.2-3.465,0-5.296,1.779-5.296,5.143v2.985c0,3.422,1.652,4.883,5.523,4.883h3.493c.134,0,.243-.109.243-.243v-1.742c0-.134-.109-.243-.243-.243h-3.409c-1.797,0-2.837-.403-2.837-2.464v-.385c0-.134.109-.243.243-.243h7.156c.134,0,.243-.109.243-.243v-2.443c0-1.694-.432-2.974-1.283-3.805"/>
      </g>
    </g>
  </g>
</svg>